<?xml version="1.0" encoding="UTF-8" standalone="no"?>
<!-- Created with Inkscape (http://www.inkscape.org/) -->

<svg
     xmlns:dc="http://purl.org/dc/elements/1.1/"
     xmlns:cc="http://creativecommons.org/ns#"
     xmlns:rdf="http://www.w3.org/1999/02/22-rdf-syntax-ns#"
     xmlns:svg="http://www.w3.org/2000/svg"
     xmlns="http://www.w3.org/2000/svg"
     xmlns:sodipodi="http://sodipodi.sourceforge.net/DTD/sodipodi-0.dtd"
     xmlns:inkscape="http://www.inkscape.org/namespaces/inkscape"
     width="100"
     height="100"
     id="svg6970"
     version="1.1"
     inkscape:version="0.48.5 r10040"
     sodipodi:docname="crystal_smd_4pad.svg"
     inkscape:export-filename="C:\_Local_DATA\_projects\_KiCAD\myPartLib\_DEV_crystal_smd.pretty\crystal_smd_4pad.png"
     inkscape:export-xdpi="270"
     inkscape:export-ydpi="270">
    <defs
         id="defs6972" />
    <sodipodi:namedview
         id="base"
         pagecolor="#ffffff"
         bordercolor="#666666"
         borderopacity="1.0"
         inkscape:pageopacity="0.0"
         inkscape:pageshadow="2"
         inkscape:zoom="3.959798"
         inkscape:cx="-25.740783"
         inkscape:cy="55.716733"
         inkscape:document-units="px"
         inkscape:current-layer="layer1"
         showgrid="false"
         fit-margin-top="0"
         fit-margin-left="0"
         fit-margin-right="0"
         fit-margin-bottom="0"
         inkscape:window-width="1920"
         inkscape:window-height="1018"
         inkscape:window-x="-8"
         inkscape:window-y="-8"
         inkscape:window-maximized="1" />
    <metadata
         id="metadata6975">
        <rdf:RDF>
            <cc:Work
                 rdf:about="">
                <dc:format>image/svg+xml</dc:format>
                <dc:type
                     rdf:resource="http://purl.org/dc/dcmitype/StillImage" />
                <dc:title></dc:title>
            </cc:Work>
        </rdf:RDF>
    </metadata>
    <g
         inkscape:label="Layer 1"
         inkscape:groupmode="layer"
         id="layer1"
         transform="translate(-336.6597,-472.50634)">
        <g
             transform="matrix(0.00900007,0,0,0.00900007,251.74865,400.37539)"
             id="g6825">
            <g
                 id="g3712"
                 style="fill:#ffffc1;fill-opacity:0.6;stroke:#ffffc1;stroke-width:0;stroke-linecap:round;stroke-linejoin:round;stroke-opacity:1">
                <polyline
                     id="polyline3714"
                     points="14500,13000 15500,13000 15500,14000 14500,14000 14500,13000 "
                     style="fill-rule:evenodd" />
            </g>
            <g
                 id="g3716"
                 style="fill:#840000;fill-opacity:0;stroke:#840000;stroke-width:120;stroke-linecap:round;stroke-linejoin:round;stroke-opacity:1">
                <polyline
                     id="polyline3718"
                     points="14500,13000 15500,13000 15500,14000 14500,14000 14500,13000 "
                     fill="none;" />
            </g>
            <g
                 id="g3720"
                 style="fill:#840000;fill-opacity:0;stroke:#840000;stroke-width:60;stroke-linecap:round;stroke-linejoin:round;stroke-opacity:1">
                <rect
                     id="rect3722"
                     rx="0"
                     height="5000"
                     width="3000"
                     y="12000"
                     x="13500" />
            </g>
            <g
                 id="g3724"
                 style="fill:#840000;fill-opacity:0;stroke:#840000;stroke-width:160;stroke-linecap:round;stroke-linejoin:round;stroke-opacity:1">
                <polyline
                     id="polyline3726"
                     points="14000,12500 14000,14500 "
                     fill="none;" />
                <polyline
                     id="polyline3728"
                     points="16000,12500 16000,14500 "
                     fill="none;" />
            </g>
            <g
                 id="g3730"
                 style="fill:#840000;fill-opacity:0;stroke:#840000;stroke-width:60;stroke-linecap:round;stroke-linejoin:round;stroke-opacity:1">
                <path
                     inkscape:connector-curvature="0"
                     id="path3732"
                     d="m 14000,13500 -2000,0" />
            </g>
            <g
                 id="g3734"
                 style="fill:#008484;fill-opacity:0;stroke:#008484;stroke-width:60;stroke-linecap:round;stroke-linejoin:round;stroke-opacity:1">
                <path
                     inkscape:connector-curvature="0"
                     id="path3736"
                     d="m 14700,13680 -220,0" />
                <path
                     inkscape:connector-curvature="0"
                     id="path3738"
                     d="m 14590,13680 0,-400 -40,60 -40,40 -30,20" />
            </g>
            <g
                 id="g3740"
                 style="fill:#840000;fill-opacity:0;stroke:#840000;stroke-width:60;stroke-linecap:round;stroke-linejoin:round;stroke-opacity:1">
                <path
                     inkscape:connector-curvature="0"
                     id="path3742"
                     d="m 13110,13380 -220,0" />
                <path
                     inkscape:connector-curvature="0"
                     id="path3744"
                     d="m 13000,13380 0,-400 -40,60 -40,40 -30,20" />
                <path
                     inkscape:connector-curvature="0"
                     id="path3746"
                     d="m 14000,17000 0,1000" />
            </g>
            <g
                 id="g3748"
                 style="fill:#008484;fill-opacity:0;stroke:#008484;stroke-width:60;stroke-linecap:round;stroke-linejoin:round;stroke-opacity:1">
                <path
                     inkscape:connector-curvature="0"
                     id="path3750"
                     d="m 13750,16220 -20,50 0,70 20,70 50,50 50,20 90,20 70,0 100,-20 40,-20 50,-50 30,-70 0,-50 -30,-70 -20,-20 -170,0 0,90" />
                <path
                     inkscape:connector-curvature="0"
                     id="path3752"
                     d="m 14230,15980 -500,0 500,-280 -500,0" />
                <path
                     inkscape:connector-curvature="0"
                     id="path3754"
                     d="m 14230,15460 -500,0 0,-120 20,-70 50,-50 50,-20 90,-20 70,0 100,20 40,20 50,50 30,70 0,120" />
            </g>
            <g
                 id="g3756"
                 style="fill:#840000;fill-opacity:0;stroke:#840000;stroke-width:60;stroke-linecap:round;stroke-linejoin:round;stroke-opacity:1">
                <path
                     inkscape:connector-curvature="0"
                     id="path3758"
                     d="m 13420,17640 -20,-20 -20,-50 0,-120 20,-40 20,-30 50,-20 50,0 70,20 290,290 0,-310" />
                <path
                     inkscape:connector-curvature="0"
                     id="path3760"
                     d="m 16000,13500 2000,0" />
            </g>
            <g
                 id="g3762"
                 style="fill:#008484;fill-opacity:0;stroke:#008484;stroke-width:60;stroke-linecap:round;stroke-linejoin:round;stroke-opacity:1">
                <path
                     inkscape:connector-curvature="0"
                     id="path3764"
                     d="m 15280,13280 240,0 -130,150 60,0 40,20 20,20 10,40 0,90 -10,40 -20,20 -40,20 -120,0 -30,-20 -20,-20" />
            </g>
            <g
                 id="g3766"
                 style="fill:#840000;fill-opacity:0;stroke:#840000;stroke-width:60;stroke-linecap:round;stroke-linejoin:round;stroke-opacity:1">
                <path
                     inkscape:connector-curvature="0"
                     id="path3768"
                     d="m 16870,12980 240,0 -130,150 60,0 40,20 20,20 10,40 0,90 -10,40 -20,20 -40,20 -120,0 -30,-20 -20,-20" />
                <path
                     inkscape:connector-curvature="0"
                     id="path3770"
                     d="m 16000,17000 0,1000" />
            </g>
            <g
                 id="g3772"
                 style="fill:#008484;fill-opacity:0;stroke:#008484;stroke-width:60;stroke-linecap:round;stroke-linejoin:round;stroke-opacity:1">
                <path
                     inkscape:connector-curvature="0"
                     id="path3774"
                     d="m 15750,16220 -20,50 0,70 20,70 50,50 50,20 90,20 70,0 100,-20 40,-20 50,-50 30,-70 0,-50 -30,-70 -20,-20 -170,0 0,90" />
                <path
                     inkscape:connector-curvature="0"
                     id="path3776"
                     d="m 16230,15980 -500,0 500,-280 -500,0" />
                <path
                     inkscape:connector-curvature="0"
                     id="path3778"
                     d="m 16230,15460 -500,0 0,-120 20,-70 50,-50 50,-20 90,-20 70,0 100,20 40,20 50,50 30,70 0,120" />
            </g>
            <g
                 id="g3780"
                 style="fill:#840000;fill-opacity:0;stroke:#840000;stroke-width:60;stroke-linecap:round;stroke-linejoin:round;stroke-opacity:1">
                <path
                     inkscape:connector-curvature="0"
                     id="path3782"
                     d="m 15540,17410 340,0" />
                <path
                     inkscape:connector-curvature="0"
                     id="path3784"
                     d="m 15350,17530 360,110 0,-300" />
            </g>
            <g
                 id="g3786"
                 style="fill:#008484;fill-opacity:0;stroke:#008484;stroke-width:60;stroke-linecap:round;stroke-linejoin:round;stroke-opacity:1">
                <path
                     inkscape:connector-curvature="0"
                     id="path3788"
                     d="m 14550,9140 400,600" />
                <path
                     inkscape:connector-curvature="0"
                     id="path3790"
                     d="m 14950,9140 -400,600" />
                <path
                     inkscape:connector-curvature="0"
                     id="path3792"
                     d="m 15260,9680 30,30 -30,30 -30,-30 30,-30 0,60" />
                <path
                     inkscape:connector-curvature="0"
                     id="path3794"
                     d="m 15140,9170 60,-30 140,0 60,30 30,60 0,50 -30,60 -30,30 -50,30 -30,30 -30,50 0,30" />
                <path
                     inkscape:connector-curvature="0"
                     id="path3796"
                     d="m 11140,10680 -30,30 -90,30 -60,0 -80,-30 -60,-50 -30,-60 -30,-120 0,-80 30,-120 30,-50 60,-60 80,-30 60,0 90,30 30,30" />
                <path
                     inkscape:connector-curvature="0"
                     id="path3798"
                     d="m 11740,10740 -200,-280" />
                <path
                     inkscape:connector-curvature="0"
                     id="path3800"
                     d="m 11390,10740 0,-600 230,0 60,30 30,30 30,60 0,80 -30,60 -30,30 -60,30 -230,0" />
                <path
                     inkscape:connector-curvature="0"
                     id="path3802"
                     d="m 12110,10460 0,280" />
                <path
                     inkscape:connector-curvature="0"
                     id="path3804"
                     d="m 11910,10140 200,320 200,-320" />
                <path
                     inkscape:connector-curvature="0"
                     id="path3806"
                     d="m 12470,10710 90,30 140,0 60,-30 30,-30 30,-50 0,-60 -30,-60 -30,-30 -60,-20 -110,-30 -60,-30 -30,-30 -30,-60 0,-50 30,-60 30,-30 60,-30 140,0 90,30" />
                <path
                     inkscape:connector-curvature="0"
                     id="path3808"
                     d="m 12990,10140 340,0" />
                <path
                     inkscape:connector-curvature="0"
                     id="path3810"
                     d="m 13160,10740 0,-600" />
                <path
                     inkscape:connector-curvature="0"
                     id="path3812"
                     d="m 13500,10570 290,0" />
                <path
                     inkscape:connector-curvature="0"
                     id="path3814"
                     d="m 13450,10740 200,-600 200,600" />
                <path
                     inkscape:connector-curvature="0"
                     id="path3816"
                     d="m 14330,10740 -290,0 0,-600" />
                <path
                     inkscape:connector-curvature="0"
                     id="path3818"
                     d="m 14390,10800 460,0" />
                <path
                     inkscape:connector-curvature="0"
                     id="path3820"
                     d="m 14960,10710 90,30 140,0 60,-30 30,-30 30,-50 0,-60 -30,-60 -30,-30 -60,-20 -110,-30 -60,-30 -30,-30 -30,-60 0,-50 30,-60 30,-30 60,-30 140,0 90,30" />
                <path
                     inkscape:connector-curvature="0"
                     id="path3822"
                     d="m 15560,10740 0,-600 200,430 200,-430 0,600" />
                <path
                     inkscape:connector-curvature="0"
                     id="path3824"
                     d="m 16250,10740 0,-600 150,0 80,30 60,60 30,50 30,120 0,80 -30,120 -30,60 -60,50 -80,30 -150,0" />
                <path
                     inkscape:connector-curvature="0"
                     id="path3826"
                     d="m 16710,10800 460,0" />
                <path
                     inkscape:connector-curvature="0"
                     id="path3828"
                     d="m 17570,10340 0,400" />
                <path
                     inkscape:connector-curvature="0"
                     id="path3830"
                     d="m 17430,10110 -150,430 380,0" />
                <path
                     inkscape:connector-curvature="0"
                     id="path3832"
                     d="m 17880,10340 0,600" />
                <path
                     inkscape:connector-curvature="0"
                     id="path3834"
                     d="m 17880,10370 60,-30 110,0 60,30 30,30 30,60 0,170 -30,50 -30,30 -60,30 -110,0 -60,-30" />
                <path
                     inkscape:connector-curvature="0"
                     id="path3836"
                     d="m 18680,10740 0,-310 -30,-60 -60,-30 -110,0 -60,30" />
                <path
                     inkscape:connector-curvature="0"
                     id="path3838"
                     d="m 18680,10710 -60,30 -140,0 -60,-30 -30,-50 0,-60 30,-60 60,-30 140,0 60,-30" />
                <path
                     inkscape:connector-curvature="0"
                     id="path3840"
                     d="m 19220,10740 0,-600" />
                <path
                     inkscape:connector-curvature="0"
                     id="path3842"
                     d="m 19220,10710 -60,30 -110,0 -60,-30 -30,-30 -30,-50 0,-170 30,-60 30,-30 60,-30 110,0 60,30" />
            </g>
        </g>
    </g>
</svg>
